<svg width="106" height="31" viewBox="0 0 106 31" fill="none" xmlns="http://www.w3.org/2000/svg">
<path d="M6.36006 0.298523C2.80006 0.298523 0.800059 2.09852 0.800059 6.09853V7.05852C0.800059 10.0185 1.36006 11.9385 3.28006 14.4185L6.16006 18.0985C7.80006 20.2585 8.00006 20.9385 8.00006 23.0985V23.7785C8.00006 25.6585 7.60006 26.3385 6.52006 26.3385C5.52006 26.3385 5.04006 25.6585 5.04006 24.2585V19.0585H0.560059V25.0185C0.560059 28.6985 2.44006 30.6585 6.08006 30.6585H6.96006C10.9601 30.6585 12.8001 28.0585 12.8001 23.6985V22.7385C12.8001 19.3385 12.1601 17.8585 10.1201 15.2185L7.24006 11.4985C5.72006 9.53852 5.40006 8.61852 5.40006 6.93852V6.37852C5.40006 4.97853 5.64006 4.29852 6.72006 4.29852C7.80006 4.29852 8.00006 5.05852 8.00006 6.05852V10.3385H12.3601V5.45852C12.3601 1.93852 10.9201 0.298523 7.20006 0.298523H6.36006Z" fill="black"/>
<path d="M22.4097 30.3385V26.2185H20.7297C19.9697 26.2185 19.8897 25.9785 19.8897 25.2185V12.8985H22.4097V8.81852H19.8897V1.73852H15.6097V8.81852H13.1697V12.8985H15.6097V27.6985C15.6097 29.6185 16.7297 30.3385 18.1697 30.3385H22.4097Z" fill="black"/>
<path d="M23.4126 27.0985C23.4126 28.8185 24.4126 30.4585 26.1326 30.4585H26.2526C28.0926 30.4585 29.2126 28.8985 29.7726 27.8985C29.7726 29.6985 30.2526 30.3385 31.1726 30.3385H35.2526V26.3785H34.4926C33.8926 26.3785 33.8126 26.2185 33.8126 25.6985V12.8985C33.8126 10.6585 33.0926 8.65852 28.9726 8.65852H28.1726C24.1326 8.65852 23.6526 11.1385 23.6526 12.7385V15.7785H27.4926V13.4985C27.4926 12.5385 27.7326 12.1385 28.5726 12.1385H28.6526C29.4126 12.1385 29.6926 12.4585 29.6926 13.5385V14.8985C29.6926 15.4985 29.6126 15.5385 29.1726 15.8185C28.5726 16.1385 26.4126 17.0985 25.4526 17.7385C23.8926 18.6985 23.4126 19.9385 23.4126 22.0585V27.0985ZM29.6926 25.0185C29.6926 26.0985 29.3326 26.6185 28.6126 26.6185C27.9326 26.6185 27.6126 26.1385 27.6126 25.2185V22.2585C27.6126 21.4185 27.7326 20.9785 28.1726 20.5385C28.6126 20.0985 29.2126 19.7385 29.6926 19.4585V25.0185Z" fill="black"/>
<path d="M40.1954 8.81852H35.9954V30.3385H40.2754V14.1385C40.2754 13.2985 40.3154 12.8185 40.9954 12.8185C41.6754 12.8185 41.7154 13.2185 41.7154 14.1385V18.9385H45.8754V11.1385C45.8754 9.69852 45.1954 8.69852 43.6354 8.69852H43.4754C41.4754 8.69852 40.5554 10.7385 40.1954 11.5385V8.81852Z" fill="black"/>
<path d="M59.1088 0.578524L57.1088 19.8185L55.0688 0.578524H50.5088L54.2288 30.3385H59.2288L61.1488 13.0185L63.0288 30.3385H67.8688L71.6688 0.578524H67.4288L65.3488 19.8585L63.3088 0.578524H59.1088Z" fill="black"/>
<path d="M71.5376 27.0985C71.5376 28.8185 72.5376 30.4585 74.2576 30.4585H74.3776C76.2176 30.4585 77.3376 28.8985 77.8976 27.8985C77.8976 29.6985 78.3776 30.3385 79.2976 30.3385H83.3776V26.3785H82.6176C82.0176 26.3785 81.9376 26.2185 81.9376 25.6985V12.8985C81.9376 10.6585 81.2176 8.65852 77.0976 8.65852H76.2976C72.2576 8.65852 71.7776 11.1385 71.7776 12.7385V15.7785H75.6176V13.4985C75.6176 12.5385 75.8576 12.1385 76.6976 12.1385H76.7776C77.5376 12.1385 77.8176 12.4585 77.8176 13.5385V14.8985C77.8176 15.4985 77.7376 15.5385 77.2976 15.8185C76.6976 16.1385 74.5376 17.0985 73.5776 17.7385C72.0176 18.6985 71.5376 19.9385 71.5376 22.0585V27.0985ZM77.8176 25.0185C77.8176 26.0985 77.4576 26.6185 76.7376 26.6185C76.0576 26.6185 75.7376 26.1385 75.7376 25.2185V22.2585C75.7376 21.4185 75.8576 20.9785 76.2976 20.5385C76.7376 20.0985 77.3376 19.7385 77.8176 19.4585V25.0185Z" fill="black"/>
<path d="M88.3204 8.81852H84.1204V30.3385H88.4004V14.1385C88.4004 13.2985 88.4404 12.8185 89.1204 12.8185C89.8004 12.8185 89.8404 13.2185 89.8404 14.1385V18.9385H94.0004V11.1385C94.0004 9.69852 93.3204 8.69852 91.7604 8.69852H91.6004C89.6004 8.69852 88.6804 10.7385 88.3204 11.5385V8.81852Z" fill="black"/>
<path d="M104.933 12.3785C104.933 10.2985 103.973 8.49852 100.573 8.49852H99.8132C96.5732 8.49852 95.1732 10.2985 95.1732 13.0185V13.6185C95.1732 15.6585 95.5732 17.2185 97.2932 19.1785L99.8132 22.0585C100.893 23.2985 100.973 24.2185 100.973 25.1385V25.4985C100.973 26.4985 100.653 26.9785 99.9732 26.9785C99.2132 26.9785 98.8932 26.6185 98.8932 25.4985V22.4185H94.8932V26.2985C94.8932 28.7385 96.1332 30.6985 99.5332 30.6985H100.373C103.893 30.6985 105.213 28.0985 105.213 25.5385V24.9785C105.213 22.8185 104.813 21.4585 102.813 19.0585L100.213 15.9385C99.4532 15.0185 99.2132 14.6185 99.2132 13.5385V13.1785C99.2132 12.3385 99.3732 11.8585 100.133 11.8585C100.773 11.8585 101.093 12.2585 101.093 13.0585V15.6185H104.933V12.3785Z" fill="black"/>
</svg>
